<svg width="100" height="40" viewBox="0 0 100 40" fill="none" xmlns="http://www.w3.org/2000/svg">
<mask id="path-1-inside-1_32_10" fill="white">
<path d="M22.6786 31.544C22.9977 31.544 23.2604 31.8038 23.2184 32.1202C23.137 32.7354 22.9256 33.3297 22.5952 33.8652C22.1625 34.5665 21.5419 35.1405 20.7996 35.526C20.0573 35.9114 19.2212 36.0939 18.3806 36.0538C17.7357 36.023 17.1067 35.8622 16.5327 35.5839C16.246 35.4449 16.1754 35.0817 16.356 34.8191V34.8191C16.5299 34.5663 16.8722 34.5027 17.1525 34.6276C17.5553 34.807 17.9912 34.9111 18.4372 34.9324C19.0689 34.9625 19.697 34.8254 20.2548 34.5358C20.8125 34.2462 21.2787 33.8149 21.6038 33.288C21.8266 32.927 21.9773 32.5305 22.0501 32.1189C22.1058 31.8047 22.3594 31.544 22.6786 31.544V31.544Z"/>
</mask>
<path d="M22.6786 31.544C22.9977 31.544 23.2604 31.8038 23.2184 32.1202C23.137 32.7354 22.9256 33.3297 22.5952 33.8652C22.1625 34.5665 21.5419 35.1405 20.7996 35.526C20.0573 35.9114 19.2212 36.0939 18.3806 36.0538C17.7357 36.023 17.1067 35.8622 16.5327 35.5839C16.246 35.4449 16.1754 35.0817 16.356 34.8191V34.8191C16.5299 34.5663 16.8722 34.5027 17.1525 34.6276C17.5553 34.807 17.9912 34.9111 18.4372 34.9324C19.0689 34.9625 19.697 34.8254 20.2548 34.5358C20.8125 34.2462 21.2787 33.8149 21.6038 33.288C21.8266 32.927 21.9773 32.5305 22.0501 32.1189C22.1058 31.8047 22.3594 31.544 22.6786 31.544V31.544Z" fill="url(#paint0_linear_32_10)" stroke="black" stroke-width="0.5312" mask="url(#path-1-inside-1_32_10)"/>
<mask id="path-2-inside-2_32_10" fill="white">
<path d="M14.3917 35.5225C14.12 35.5522 13.8723 35.3554 13.8786 35.0821C13.8908 34.5509 14.0155 34.0253 14.247 33.5387C14.5502 32.9015 15.0252 32.3552 15.6213 31.9581C16.2174 31.561 16.9122 31.328 17.6316 31.2841C18.1835 31.2503 18.7339 31.3288 19.2483 31.5124C19.5054 31.6041 19.5992 31.9067 19.4698 32.147V32.147C19.3453 32.3784 19.0598 32.4644 18.8096 32.3841C18.45 32.2687 18.0692 32.2207 17.6876 32.244C17.1471 32.277 16.625 32.4521 16.1771 32.7504C15.7293 33.0488 15.3724 33.4592 15.1446 33.938C14.9885 34.266 14.897 34.6176 14.8733 34.9747C14.8551 35.2474 14.6634 35.4929 14.3917 35.5225V35.5225Z"/>
</mask>
<path d="M14.3917 35.5225C14.12 35.5522 13.8723 35.3554 13.8786 35.0821C13.8908 34.5509 14.0155 34.0253 14.247 33.5387C14.5502 32.9015 15.0252 32.3552 15.6213 31.9581C16.2174 31.561 16.9122 31.328 17.6316 31.2841C18.1835 31.2503 18.7339 31.3288 19.2483 31.5124C19.5054 31.6041 19.5992 31.9067 19.4698 32.147V32.147C19.3453 32.3784 19.0598 32.4644 18.8096 32.3841C18.45 32.2687 18.0692 32.2207 17.6876 32.244C17.1471 32.277 16.625 32.4521 16.1771 32.7504C15.7293 33.0488 15.3724 33.4592 15.1446 33.938C14.9885 34.266 14.897 34.6176 14.8733 34.9747C14.8551 35.2474 14.6634 35.4929 14.3917 35.5225V35.5225Z" fill="url(#paint1_linear_32_10)" stroke="black" stroke-width="0.454896" mask="url(#path-2-inside-2_32_10)"/>
<mask id="path-3-inside-3_32_10" fill="white">
<path d="M8.12985 32.5395C7.92479 32.4237 7.85033 32.1614 7.99207 31.9734C8.26764 31.6077 8.61912 31.3025 9.02572 31.0784C9.55822 30.7848 10.1653 30.6412 10.782 30.6629C11.3988 30.6846 12.0022 30.8708 12.5278 31.2016C12.931 31.4554 13.2768 31.787 13.5445 32.174C13.6783 32.3674 13.5919 32.6264 13.3806 32.7296V32.7296C13.1771 32.8289 12.934 32.7455 12.7993 32.5636C12.6056 32.3021 12.3633 32.0771 12.0845 31.9016C11.6896 31.653 11.2362 31.5131 10.7728 31.4968C10.3094 31.4805 9.8533 31.5884 9.45321 31.809C9.17912 31.9601 8.93837 32.1602 8.74224 32.3981C8.59245 32.5799 8.33491 32.6553 8.12985 32.5395V32.5395Z"/>
</mask>
<path d="M8.12985 32.5395C7.92479 32.4237 7.85033 32.1614 7.99207 31.9734C8.26764 31.6077 8.61912 31.3025 9.02572 31.0784C9.55822 30.7848 10.1653 30.6412 10.782 30.6629C11.3988 30.6846 12.0022 30.8708 12.5278 31.2016C12.931 31.4554 13.2768 31.787 13.5445 32.174C13.6783 32.3674 13.5919 32.6264 13.3806 32.7296V32.7296C13.1771 32.8289 12.934 32.7455 12.7993 32.5636C12.6056 32.3021 12.3633 32.0771 12.0845 31.9016C11.6896 31.653 11.2362 31.5131 10.7728 31.4968C10.3094 31.4805 9.8533 31.5884 9.45321 31.809C9.17912 31.9601 8.93837 32.1602 8.74224 32.3981C8.59245 32.5799 8.33491 32.6553 8.12985 32.5395V32.5395Z" fill="url(#paint2_linear_32_10)" stroke="black" stroke-width="0.391969" mask="url(#path-3-inside-3_32_10)"/>
<mask id="path-4-inside-4_32_10" fill="white">
<path d="M10.1413 33.8129C10.2885 33.9147 10.3267 34.1184 10.2065 34.2509C9.9726 34.5086 9.68547 34.7153 9.36224 34.8568C8.93891 35.0421 8.46954 35.1088 8.00423 35.0497C7.53892 34.9907 7.09513 34.808 6.72023 34.5213C6.43264 34.3013 6.19386 34.0264 6.01797 33.715C5.93009 33.5593 6.01344 33.3693 6.18052 33.3059V33.3059C6.34139 33.2447 6.51956 33.3246 6.60897 33.4717C6.73747 33.683 6.90529 33.8701 7.10419 34.0222C7.38587 34.2376 7.7193 34.3748 8.06891 34.4192C8.41851 34.4636 8.77116 34.4135 9.08923 34.2743C9.30712 34.1789 9.50318 34.0441 9.66808 33.8775C9.79402 33.7504 9.99415 33.7111 10.1413 33.8129V33.8129Z"/>
</mask>
<path d="M10.1413 33.8129C10.2885 33.9147 10.3267 34.1184 10.2065 34.2509C9.9726 34.5086 9.68547 34.7153 9.36224 34.8568C8.93891 35.0421 8.46954 35.1088 8.00423 35.0497C7.53892 34.9907 7.09513 34.808 6.72023 34.5213C6.43264 34.3013 6.19386 34.0264 6.01797 33.715C5.93009 33.5593 6.01344 33.3693 6.18052 33.3059V33.3059C6.34139 33.2447 6.51956 33.3246 6.60897 33.4717C6.73747 33.683 6.90529 33.8701 7.10419 34.0222C7.38587 34.2376 7.7193 34.3748 8.06891 34.4192C8.41851 34.4636 8.77116 34.4135 9.08923 34.2743C9.30712 34.1789 9.50318 34.0441 9.66808 33.8775C9.79402 33.7504 9.99415 33.7111 10.1413 33.8129V33.8129Z" fill="url(#paint3_linear_32_10)" stroke="black" stroke-width="0.297896" mask="url(#path-4-inside-4_32_10)"/>
<path d="M99.7528 31.3553V32.2769C99.7692 34.379 97.535 35.203 91.9769 36.4241L78.8441 37.2881C74.8377 38.4918 72.558 38.8592 68.4185 38.8433L67.3817 39.2465H61.6793H60.1241H55.2857L52.3216 39.016L50.4473 39.1313L43.4777 37.4609C40.8179 36.8862 39.3507 36.5436 36.9689 35.7329C36.3382 37.1525 35.8642 37.6656 34.6649 37.7489H29.3082C27.1406 37.2472 26.4314 36.648 25.5642 35.3297C25.5642 35.3297 23.8362 34.8113 23.721 34.4081C23.6058 34.0049 25.3338 33.4865 25.161 33.1985C24.9882 32.9105 24.4911 32.6765 23.3754 32.5073C23.3754 32.5073 18.3066 33.4289 18.537 33.0833C18.7674 32.7377 21.129 30.8945 20.6106 30.7793C20.0922 30.6641 5.05859 29.3969 5.05859 29.3969C5.05859 29.3969 2.40899 31.7585 2.40899 31.0097V29.1665C2.19515 28.5087 0.623398 27.7841 1.0842 27.4385C1.545 27.0929 2.46659 27.3233 2.46659 27.3233C3.78399 27.6656 4.34037 27.9399 5.23139 28.4753L6.32578 28.3025L21.0138 28.4753L30.2297 25.9985C30.2297 25.9985 20.0922 1.00009 20.3226 1.00009H27.5226C28.3054 0.993427 28.7735 1.33991 29.6537 2.49769L44.5721 23.1761L86.9081 22.8305C88.8506 22.9986 89.9206 23.1779 91.7465 23.8673C94.2333 25.0509 95.5324 25.8026 97.2184 27.7265C98.5495 29.4261 99.7068 30.7191 99.7528 31.3553Z" fill="url(#paint4_linear_32_10)" stroke="#CFCFCF" stroke-opacity="0.7" stroke-width="0.3456"/>
<path d="M88.3216 28.1873H90.2224C90.28 28.1873 90.568 31.5281 90.2224 31.5281H88.3216C87.976 31.5281 88.264 28.1873 88.3216 28.1873Z" stroke="#001A2A" stroke-width="0.2304"/>
<path d="M75.1371 28.1873H77.0379C77.0955 28.1873 77.3835 31.5281 77.0379 31.5281H75.1371C74.7915 31.5281 75.0795 28.1873 75.1371 28.1873Z" stroke="#001A2A" stroke-width="0.2304"/>
<path d="M52.9555 24.0401H54.3435C54.4011 24.0401 54.6891 27.0353 54.3435 27.0353H52.9555C52.6099 27.0353 52.8979 24.0401 52.9555 24.0401Z" stroke="#001A2A" stroke-width="0.2304"/>
<path d="M95.4068 27.9569H96.4435L97.0771 28.7633H95.7524C95.7524 28.7633 95.6372 28.4753 95.3492 28.4753C95.0612 28.4753 94.4852 29.3393 94.4852 29.3393C94.4852 29.3393 94.082 29.3969 94.082 29.3393C94.082 29.2817 94.0244 28.9361 94.082 28.8785C94.1396 28.8209 95.0036 27.7265 95.0036 27.7265C95.2364 27.7306 95.3183 27.7883 95.4068 27.9569Z" fill="url(#paint5_linear_32_10)"/>
<path d="M93.794 27.7265H94.37C94.4852 27.7265 94.37 27.9569 94.37 27.9569C94.37 27.9569 93.7364 29.1665 93.6212 29.1665H92.5268C92.5268 29.1665 92.4692 28.9937 92.5268 28.8785C92.5844 28.7633 93.5636 27.7265 93.794 27.7265Z" fill="url(#paint6_linear_32_10)"/>
<path d="M23.349 8.3153C27.7478 14.3397 30.1291 17.742 34.1777 23.8673C34.1777 23.8673 31.6433 23.8097 31.5281 23.8097C31.4129 23.8097 27.8417 19.5473 27.8417 19.5473L23.349 8.3153Z" fill="#9D022D"/>
<path d="M41.2049 23.2337C41.4929 23.4066 43.7393 23.6945 42.5873 23.6945H41.3201H38.6129L22.8305 1.4033H25.4225C25.4225 1.4033 40.9169 23.0608 41.2049 23.2337Z" fill="#020D3E"/>
<path d="M22.0817 1.4033L37.9793 23.6945H37.0577C36.7435 23.5494 36.6041 23.4359 36.4241 23.1761L21.1025 1.4033H22.0817Z" fill="#020D3E"/>
<path d="M20.7569 1.6913L36.0785 23.6945H35.2721L22.0241 4.9745L20.7569 1.6913Z" fill="#020D3E"/>
<ellipse cx="0.345599" cy="0.3456" rx="0.345599" ry="0.3456" transform="matrix(-1 0 0 1 83.1953 24.9617)" fill="#000B20"/>
<ellipse cx="0.345599" cy="0.3456" rx="0.345599" ry="0.3456" transform="matrix(-1 0 0 1 86.7666 29.2241)" fill="#000B20"/>
<ellipse cx="0.345599" cy="0.3456" rx="0.345599" ry="0.3456" transform="matrix(-1 0 0 1 85.6147 29.2241)" fill="#000B20"/>
<ellipse cx="0.345599" cy="0.3456" rx="0.345599" ry="0.3456" transform="matrix(-1 0 0 1 84.4624 29.2241)" fill="#000B20"/>
<ellipse cx="0.345599" cy="0.3456" rx="0.345599" ry="0.3456" transform="matrix(-1 0 0 1 83.3105 29.2241)" fill="#000B20"/>
<ellipse cx="0.345599" cy="0.3456" rx="0.345599" ry="0.3456" transform="matrix(-1 0 0 1 82.1587 29.2241)" fill="#000B20"/>
<ellipse cx="0.345599" cy="0.3456" rx="0.345599" ry="0.3456" transform="matrix(-1 0 0 1 81.0068 29.2241)" fill="#000B20"/>
<ellipse cx="0.345599" cy="0.3456" rx="0.345599" ry="0.3456" transform="matrix(-1 0 0 1 79.8545 29.2241)" fill="#000B20"/>
<ellipse cx="0.345599" cy="0.3456" rx="0.345599" ry="0.3456" transform="matrix(-1 0 0 1 78.7026 29.2241)" fill="#000B20"/>
<ellipse cx="0.345599" cy="0.3456" rx="0.345599" ry="0.3456" transform="matrix(-1 0 0 1 73.8643 29.2241)" fill="#000B20"/>
<ellipse cx="0.345599" cy="0.3456" rx="0.345599" ry="0.3456" transform="matrix(-1 0 0 1 72.7124 29.2241)" fill="#000B20"/>
<ellipse cx="0.345599" cy="0.3456" rx="0.345599" ry="0.3456" transform="matrix(-1 0 0 1 71.5601 29.2241)" fill="#000B20"/>
<ellipse cx="0.345599" cy="0.3456" rx="0.345599" ry="0.3456" transform="matrix(-1 0 0 1 70.4082 29.2241)" fill="#000B20"/>
<ellipse cx="0.345599" cy="0.3456" rx="0.345599" ry="0.3456" transform="matrix(-1 0 0 1 69.2563 29.2241)" fill="#000B20"/>
<ellipse cx="0.345599" cy="0.3456" rx="0.345599" ry="0.3456" transform="matrix(-1 0 0 1 68.1045 29.2241)" fill="#000B20"/>
<ellipse cx="0.345599" cy="0.3456" rx="0.345599" ry="0.3456" transform="matrix(-1 0 0 1 66.9521 29.2241)" fill="#000B20"/>
<ellipse cx="0.345599" cy="0.3456" rx="0.345599" ry="0.3456" transform="matrix(-1 0 0 1 65.8003 29.2241)" fill="#000B20"/>
<ellipse cx="0.345599" cy="0.3456" rx="0.345599" ry="0.3456" transform="matrix(-1 0 0 1 64.6484 29.2241)" fill="#000B20"/>
<ellipse cx="0.345599" cy="0.3456" rx="0.345599" ry="0.3456" transform="matrix(-1 0 0 1 63.4966 29.2241)" fill="#000B20"/>
<ellipse cx="0.345599" cy="0.3456" rx="0.345599" ry="0.3456" transform="matrix(-1 0 0 1 62.3442 29.2241)" fill="#000B20"/>
<ellipse cx="0.345599" cy="0.3456" rx="0.345599" ry="0.3456" transform="matrix(-1 0 0 1 61.1924 29.2241)" fill="#000B20"/>
<ellipse cx="0.345599" cy="0.3456" rx="0.345599" ry="0.3456" transform="matrix(-1 0 0 1 60.0405 29.2241)" fill="#000B20"/>
<ellipse cx="0.345599" cy="0.3456" rx="0.345599" ry="0.3456" transform="matrix(-1 0 0 1 58.8882 29.2241)" fill="#000B20"/>
<ellipse cx="0.345599" cy="0.3456" rx="0.345599" ry="0.3456" transform="matrix(-1 0 0 1 57.7363 29.2241)" fill="#000B20"/>
<ellipse cx="0.345599" cy="0.3456" rx="0.345599" ry="0.3456" transform="matrix(-1 0 0 1 82.0435 24.9617)" fill="#000B20"/>
<ellipse cx="0.345599" cy="0.3456" rx="0.345599" ry="0.3456" transform="matrix(-1 0 0 1 81.0068 24.9617)" fill="#000B20"/>
<ellipse cx="0.345599" cy="0.3456" rx="0.345599" ry="0.3456" transform="matrix(-1 0 0 1 79.9697 24.9617)" fill="#000B20"/>
<ellipse cx="0.345599" cy="0.3456" rx="0.345599" ry="0.3456" transform="matrix(-1 0 0 1 78.9331 24.9617)" fill="#000B20"/>
<ellipse cx="0.345599" cy="0.3456" rx="0.345599" ry="0.3456" transform="matrix(-1 0 0 1 77.8965 24.9617)" fill="#000B20"/>
<ellipse cx="0.345599" cy="0.3456" rx="0.345599" ry="0.3456" transform="matrix(-1 0 0 1 76.8594 24.9617)" fill="#000B20"/>
<ellipse cx="0.345599" cy="0.3456" rx="0.345599" ry="0.3456" transform="matrix(-1 0 0 1 75.8228 24.9617)" fill="#000B20"/>
<ellipse cx="0.345599" cy="0.3456" rx="0.345599" ry="0.3456" transform="matrix(-1 0 0 1 74.7861 24.9617)" fill="#000B20"/>
<ellipse cx="0.345599" cy="0.3456" rx="0.345599" ry="0.3456" transform="matrix(-1 0 0 1 69.8325 24.9617)" fill="#000B20"/>
<ellipse cx="0.345599" cy="0.3456" rx="0.345599" ry="0.3456" transform="matrix(-1 0 0 1 68.6802 24.9617)" fill="#000B20"/>
<ellipse cx="0.345599" cy="0.3456" rx="0.345599" ry="0.3456" transform="matrix(-1 0 0 1 67.5283 24.9617)" fill="#000B20"/>
<ellipse cx="0.345599" cy="0.3456" rx="0.345599" ry="0.3456" transform="matrix(-1 0 0 1 66.376 24.9617)" fill="#000B20"/>
<ellipse cx="0.345599" cy="0.3456" rx="0.345599" ry="0.3456" transform="matrix(-1 0 0 1 65.2241 24.9617)" fill="#000B20"/>
<ellipse cx="0.345599" cy="0.3456" rx="0.345599" ry="0.3456" transform="matrix(-1 0 0 1 64.0723 24.9617)" fill="#000B20"/>
<ellipse cx="0.345599" cy="0.3456" rx="0.345599" ry="0.3456" transform="matrix(-1 0 0 1 62.9204 24.9617)" fill="#000B20"/>
<ellipse cx="0.345599" cy="0.3456" rx="0.345599" ry="0.3456" transform="matrix(-1 0 0 1 61.7686 24.9617)" fill="#000B20"/>
<ellipse cx="0.345599" cy="0.3456" rx="0.345599" ry="0.3456" transform="matrix(-1 0 0 1 60.6162 24.9617)" fill="#000B20"/>
<ellipse cx="0.345599" cy="0.3456" rx="0.345599" ry="0.3456" transform="matrix(-1 0 0 1 59.4644 24.9617)" fill="#000B20"/>
<ellipse cx="0.345599" cy="0.3456" rx="0.345599" ry="0.3456" transform="matrix(-1 0 0 1 58.3125 24.9617)" fill="#000B20"/>
<ellipse cx="0.345599" cy="0.3456" rx="0.345599" ry="0.3456" transform="matrix(-1 0 0 1 57.1602 24.9617)" fill="#000B20"/>
<ellipse cx="0.345599" cy="0.3456" rx="0.345599" ry="0.3456" transform="matrix(-1 0 0 1 56.0083 24.9617)" fill="#000B20"/>
<ellipse cx="0.345599" cy="0.3456" rx="0.345599" ry="0.3456" transform="matrix(-1 0 0 1 51.4004 24.9617)" fill="#000B20"/>
<ellipse cx="0.345599" cy="0.3456" rx="0.345599" ry="0.3456" transform="matrix(-1 0 0 1 50.248 24.9617)" fill="#000B20"/>
<ellipse cx="0.345599" cy="0.3456" rx="0.345599" ry="0.3456" transform="matrix(-1 0 0 1 49.0962 24.9617)" fill="#000B20"/>
<ellipse cx="0.345599" cy="0.3456" rx="0.345599" ry="0.3456" transform="matrix(-1 0 0 1 47.9443 24.9617)" fill="#000B20"/>
<ellipse cx="0.345599" cy="0.3456" rx="0.345599" ry="0.3456" transform="matrix(-1 0 0 1 46.7925 24.9617)" fill="#000B20"/>
<ellipse cx="0.345599" cy="0.3456" rx="0.345599" ry="0.3456" transform="matrix(-1 0 0 1 45.6401 24.9617)" fill="#000B20"/>
<ellipse cx="0.345599" cy="0.3456" rx="0.345599" ry="0.3456" transform="matrix(-1 0 0 1 44.4883 24.9617)" fill="#000B20"/>
<path d="M34.5811 29.6849C34.3507 29.6849 7.56676 28.9937 7.50916 28.9937C7.45156 28.9937 17.4164 30.2608 17.4164 30.2608C18.6765 30.3679 21.0627 30.2943 21.1602 30.7216C21.1633 31.2828 19.9957 32.0613 18.8403 33.0257C18.8403 33.0257 20.1971 33.0096 22.0403 32.5488C23.8835 32.088 25.3153 33.1232 25.3203 33.1888C25.3252 33.2544 24.7464 33.5622 23.8003 34.3888C25.0914 35.0898 25.6403 35.2688 25.6403 35.2688C25.6403 35.2688 26.2522 36.7674 28.13 37.2304C29.3656 37.7263 30.4111 37.7983 32.8403 37.5888C33.8527 37.6365 34.8399 37.7035 35.7203 37.3488C36.3274 36.8081 36.7752 35.7558 36.8401 35.5918C36.8935 35.8105 50.0422 38.9122 50.4403 38.9488C50.8403 38.9856 51.7587 38.9488 52.6803 38.9488C53.6018 38.9488 54.7603 39.0288 54.7603 39.0288L60.2803 39.1088H61.1603H67.4003L68.4403 38.7088C73.0319 38.7666 74.6061 38.2924 78.933 36.9424C78.933 36.9424 79.0483 36.1935 78.9907 35.9055C78.9331 35.6175 70.8115 37.288 70.8115 37.288C70.8115 37.288 66.9523 37.7489 66.3763 37.2881C65.8003 36.8273 70.5234 36.8273 70.5234 36.8273C73.0918 36.1385 74.5602 35.7634 75.1314 34.2929C75.1681 33.8781 75.256 33.6686 75.1314 33.1985C74.7902 32.2931 74.3065 31.9762 73.0002 31.7009L68.7954 31.1825L59.9251 30.3761C59.9251 30.3761 57.8515 30.0881 57.6787 30.0881C57.5059 30.0881 57.1603 29.9153 57.0451 29.9153C56.9299 29.9153 48.9235 29.3969 48.9235 29.3969L45.1219 29.1089L35.4451 28.3601L34.5811 28.0145L32.5075 27.4961L27.7267 26.9777L21.5635 28.6481L33.8899 29.1089L38.0371 29.5697L57.0451 30.7217C57.0451 30.7217 64.6483 31.5857 64.7059 31.6433C64.7635 31.7009 64.7635 32.6801 64.5907 32.6801C64.4179 32.6801 55.7779 31.2401 55.7779 31.2401L50.1331 31.0097L35.6755 30.0305C35.6755 30.0305 34.8115 29.6849 34.5811 29.6849Z" fill="url(#paint7_linear_32_10)"/>
<path d="M53.8193 37.9793C53.3689 37.1408 53.4153 36.5859 53.301 35.6752C53.301 35.6752 47.6953 35.3024 47.6562 35.4448C47.6171 35.5872 48.311 37.4139 50.2481 37.9793H53.8193Z" fill="#AAC0D0"/>
<path d="M54.7986 38.0945C54.3379 37.9792 53.6466 36.8273 53.9346 36.9425C54.2226 37.0577 54.5683 37.6336 55.3746 37.6337C56.181 37.6338 57.1877 36.3827 57.2178 35.3297C57.1256 33.2564 56.6503 32.6646 55.6626 32.6801C54.1324 32.8118 53.5727 33.3947 53.301 35.6753C48.7918 35.7999 47.6071 35.7446 47.6563 35.4449V34.3505C48.1791 32.7461 48.8879 32.233 50.9971 32.1041H55.6626C56.0965 32.1947 56.3489 32.254 56.6994 32.5649C57.8972 33.6587 58.0243 35.4448 57.7362 36.3089C57.4482 37.173 56.5267 37.9792 56.2386 38.0945C55.9506 38.2098 55.2594 38.2098 54.7986 38.0945Z" fill="white"/>
<ellipse cx="1.6704" cy="2.304" rx="1.6704" ry="2.304" transform="matrix(-1 0 0 1 57.0449 32.7953)" fill="#051E3C"/>
<path d="M31.5137 35.9056C31.0632 35.0671 31.1097 34.5122 30.9953 33.6015C30.9953 33.6015 25.3896 33.2287 25.3506 33.3711C25.3115 33.5135 26.0053 35.3402 27.9425 35.9056H31.5137Z" fill="#AAC0D0"/>
<path d="M32.493 36.0208C32.0323 35.9055 31.341 34.7536 31.629 34.8688C31.917 34.984 32.2627 35.5599 33.069 35.56C33.8753 35.5601 34.8821 34.309 34.9122 33.256C34.82 31.1827 34.3447 30.5909 33.357 30.6064C31.8268 30.7381 31.2671 31.321 30.9954 33.6016C26.4861 33.7262 25.3015 33.6709 25.3506 33.3712V32.2768C25.8734 30.6724 26.5822 30.1593 28.6914 30.0304H33.357C33.7909 30.121 34.0432 30.1803 34.3938 30.4912C35.5916 31.585 35.7186 33.3711 35.4306 34.2352C35.1425 35.0993 34.2211 35.9055 33.933 36.0208C33.6449 36.1361 32.9537 36.1361 32.493 36.0208Z" fill="white"/>
<ellipse cx="1.6704" cy="2.304" rx="1.6704" ry="2.304" transform="matrix(-1 0 0 1 34.7393 30.7216)" fill="#051E3C"/>
<path d="M73.8067 33.2561C74.216 33.6381 74.2202 33.8393 73.8067 34.1777C73.8067 34.1777 65.3972 32.7952 65.282 32.7952C65.1668 32.7952 65.3395 31.7585 65.3395 31.7585C65.3395 31.7585 73.1199 32.6503 73.8067 33.2561Z" fill="white"/>
<path d="M3.2783 28.8621C3.22306 28.6411 2.20521 27.8288 2.2847 27.8288C2.36418 27.8288 3.83471 28.5442 3.9142 28.7032C3.99369 28.8621 3.23855 30.1737 3.23855 30.1339C3.23855 30.0942 3.26948 29.3693 3.2783 28.8621Z" fill="black" stroke="#09274B" stroke-width="0.079488"/>
<defs>
<linearGradient id="paint0_linear_32_10" x1="18.6084" y1="36.0592" x2="18.6084" y2="27.0288" gradientUnits="userSpaceOnUse">
<stop stop-color="white"/>
<stop offset="1" stop-color="#999999"/>
</linearGradient>
<linearGradient id="paint1_linear_32_10" x1="17.4371" y1="31.3006" x2="18.2761" y2="38.9882" gradientUnits="userSpaceOnUse">
<stop stop-color="white"/>
<stop offset="1" stop-color="#999999"/>
</linearGradient>
<linearGradient id="paint2_linear_32_10" x1="12.3834" y1="31.1154" x2="9.10643" y2="36.9175" gradientUnits="userSpaceOnUse">
<stop stop-color="white"/>
<stop offset="1" stop-color="#999999"/>
</linearGradient>
<linearGradient id="paint3_linear_32_10" x1="6.82359" y1="34.5965" x2="9.70505" y2="30.4319" gradientUnits="userSpaceOnUse">
<stop stop-color="white"/>
<stop offset="1" stop-color="#999999"/>
</linearGradient>
<linearGradient id="paint4_linear_32_10" x1="90.7984" y1="43.2208" x2="25.0768" y2="2.4976" gradientUnits="userSpaceOnUse">
<stop stop-color="white"/>
<stop offset="1" stop-color="#E1DCDC" stop-opacity="0"/>
</linearGradient>
<linearGradient id="paint5_linear_32_10" x1="94.7892" y1="29.3649" x2="94.7892" y2="27.7265" gradientUnits="userSpaceOnUse">
<stop stop-color="#051E3C"/>
<stop offset="1" stop-color="#134178"/>
</linearGradient>
<linearGradient id="paint6_linear_32_10" x1="94.7892" y1="29.3649" x2="94.7892" y2="27.7265" gradientUnits="userSpaceOnUse">
<stop stop-color="#051E3C"/>
<stop offset="1" stop-color="#134178"/>
</linearGradient>
<linearGradient id="paint7_linear_32_10" x1="79.0068" y1="34.3534" x2="7.50889" y2="34.3534" gradientUnits="userSpaceOnUse">
<stop stop-color="#051E3C"/>
<stop offset="1" stop-color="#134178"/>
</linearGradient>
</defs>
</svg>
